#tb 0: 1/25
0,          0,          0,        1,  6144000, 0xf7da9a00
0,          1,          1,        1,  6144000, 0xf5cfc76f
0,          2,          2,        1,  6144000, 0x20663e82
0,          3,          3,        1,  6144000, 0xbff3d1e7
0,          4,          4,        1,  6144000, 0x6f1b824d
0,          5,          5,        1,  6144000, 0x4d75e5c9
0,          6,          6,        1,  6144000, 0xb4443853
0,          7,          7,        1,  6144000, 0x6943bbcb
0,          8,          8,        1,  6144000, 0x1748b8d3
0,          9,          9,        1,  6144000, 0x0e15caec
0,         10,         10,        1,  6144000, 0xf7553ff4
0,         11,         11,        1,  6144000, 0x34007146
0,         12,         12,        1,  6144000, 0xd115a7ad
0,         13,         13,        1,  6144000, 0x1adc8d27
0,         14,         14,        1,  6144000, 0x2c3a43a6
0,         15,         15,        1,  6144000, 0x1820500a
0,         16,         16,        1,  6144000, 0xb33cf5af
0,         17,         17,        1,  6144000, 0x5ba58d5a
0,         18,         18,        1,  6144000, 0x453f35bc
0,         19,         19,        1,  6144000, 0x4e6ac2ab
0,         20,         20,        1,  6144000, 0xfab2b132
0,         21,         21,        1,  6144000, 0xf903b7bf
0,         22,         22,        1,  6144000, 0x160ebf13
0,         23,         23,        1,  6144000, 0xd147c884
0,         24,         24,        1,  6144000, 0x266abc04
0,         25,         25,        1,  6144000, 0x9fabf642
0,         26,         26,        1,  6144000, 0x1ad4f6c7
0,         27,         27,        1,  6144000, 0x41fa1e6f
0,         28,         28,        1,  6144000, 0x14b2b3b4
0,         29,         29,        1,  6144000, 0x19c6d13e
0,         30,         30,        1,  6144000, 0x414f5a36
0,         31,         31,        1,  6144000, 0x439278aa
0,         32,         32,        1,  6144000, 0xf8e73a55
0,         33,         33,        1,  6144000, 0xf4cf7779
0,         34,         34,        1,  6144000, 0x86ac3a16
0,         35,         35,        1,  6144000, 0xdc9abdb8
0,         36,         36,        1,  6144000, 0x9ab68a62
0,         37,         37,        1,  6144000, 0xcd290547
0,         38,         38,        1,  6144000, 0xd2eb88bb
0,         39,         39,        1,  6144000, 0x126e084e
0,         40,         40,        1,  6144000, 0x1aa5302c
0,         41,         41,        1,  6144000, 0x689cb93e
0,         42,         42,        1,  6144000, 0xaa9e3be6
0,         43,         43,        1,  6144000, 0x33dc9ead
0,         44,         44,        1,  6144000, 0xcb943dd3
0,         45,         45,        1,  6144000, 0x22a67b19
0,         46,         46,        1,  6144000, 0x3bfb741a
0,         47,         47,        1,  6144000, 0x9238e595
0,         48,         48,        1,  6144000, 0xf0fb6381
0,         49,         49,        1,  6144000, 0x6ea42af1
0,         50,         50,        1,  6144000, 0x47d9c3a7
0,         51,         51,        1,  6144000, 0x9f73966b
0,         52,         52,        1,  6144000, 0xdf777adc
0,         53,         53,        1,  6144000, 0xf51f206e
0,         54,         54,        1,  6144000, 0x465c350a
0,         55,         55,        1,  6144000, 0x9253a45a
0,         56,         56,        1,  6144000, 0x72c89751
0,         57,         57,        1,  6144000, 0x0405cdfc
0,         58,         58,        1,  6144000, 0xc5ede0c7
0,         59,         59,        1,  6144000, 0xcf1c2b5e
